<?xml version="1.0" encoding="utf-8"?>
<svg version="1.1" id="Layer_1" xmlns="http://www.w3.org/2000/svg" xmlns:xlink="http://www.w3.org/1999/xlink" x="0px" y="0px"
	 viewBox="0 0 45.8 43.1" style="enable-background:new 0 0 45.8 43.1;" xml:space="preserve">
<polygon fill="#333333" fill-opacity="0" points="23,0.3 45.8,43.1 0,43.1 "/>
<polygon fill="#FFD44F" points="6.1,39.6 23,8.2 39.7,39.6 "/>
<path fill="#333333" d="M23,9.8L38.6,39H7.3L23,9.8 M23,6.7L21.8,9L6,38.2l-1.1,2.1h36l-1.1-2.1L24.2,9.1L23,6.7L23,6.7z"/>
<path fill="#333333" d="M23.8,26.2c0.6,1.3,2.2,0,2.2,0c1.1,1.1,1.7,2.6,1.7,4.2c0.1,3.3-3.5,4.1-3.5,4.1c0.1-1.5-0.5-1.9-0.5-1.9
	c-0.4-0.5-0.5-1.2-0.4-1.9c-2.3,1.1-1.1,3.8-1.1,3.8l-1.7-1.2c-4.2-3-1.1-6.5-1.1-6.5c0,0.5,0.2,0.9,0.5,1.1c0.4-2.1,1.9-3.8,4-4.4
	C23.5,24.5,23.5,25.4,23.8,26.2z"/>
</svg>
